<?xml version="1.0" standalone="no"?>
<!DOCTYPE svg PUBLIC "-//W3C//DTD SVG 20010904//EN"
 "http://www.w3.org/TR/2001/REC-SVG-20010904/DTD/svg10.dtd">
<svg version="1.0" xmlns="http://www.w3.org/2000/svg"
 width="250.000000pt" height="250.000000pt" viewBox="0 0 250.000000 250.000000"
 preserveAspectRatio="xMidYMid meet">
<metadata>
Created by potrace 1.14, written by Peter Selinger 2001-2017
</metadata>
<g transform="translate(0.000000,250.000000) scale(0.100000,-0.100000)"
fill="#000000" stroke="none">
<path d="M1285 2339 c-38 -61 -72 -112 -75 -114 -3 -2 -36 -6 -75 -10 -38 -3
-73 -9 -78 -12 -4 -2 -52 38 -105 90 l-97 94 -113 -53 -113 -54 6 -111 c4 -61
8 -119 10 -128 4 -22 3 -23 -67 -89 l-55 -54 -79 12 c-44 6 -95 14 -114 16
-19 3 -42 7 -50 10 -17 4 -19 1 -80 -111 -23 -44 -47 -86 -53 -92 -11 -15 -13
-11 90 -134 70 -84 71 -87 63 -125 -5 -21 -12 -59 -15 -84 -4 -25 -10 -46 -13
-48 -4 -1 -56 -29 -117 -61 -119 -63 -114 -57 -101 -136 2 -11 7 -49 11 -85 8
-66 20 -102 33 -98 4 1 58 -10 120 -26 l112 -28 35 -74 c19 -40 35 -78 35 -84
0 -6 -25 -60 -56 -121 l-56 -111 29 -31 c16 -18 56 -60 87 -93 l58 -62 121 50
c121 49 122 49 152 32 17 -9 51 -27 77 -40 44 -23 47 -27 54 -77 4 -28 8 -54
9 -57 1 -3 5 -25 9 -50 18 -109 10 -99 96 -115 14 -2 58 -11 98 -18 l72 -14
31 50 c16 27 48 77 70 112 l40 62 62 6 c34 4 71 9 82 12 16 5 41 -15 115 -88
l95 -94 117 55 c110 52 117 57 114 81 -3 14 -7 73 -11 131 l-6 105 60 59 c59
57 62 58 104 52 23 -3 62 -9 87 -12 25 -3 64 -9 88 -14 l42 -7 29 51 c16 28
44 79 62 112 l33 61 -85 102 -85 101 16 77 c8 43 18 83 22 88 3 6 56 35 117
65 109 54 111 56 106 85 -3 17 -7 48 -10 70 -9 98 -18 150 -26 156 -5 3 -62
18 -127 34 l-119 28 -36 79 -37 78 55 110 c30 60 55 115 55 123 0 7 -8 20 -17
28 -10 9 -48 48 -86 87 l-67 70 -121 -48 -121 -49 -74 40 c-40 22 -75 48 -78
57 -7 26 -26 131 -32 187 -4 28 -7 51 -8 52 -1 2 -49 12 -107 23 -57 11 -113
22 -124 25 -17 4 -33 -14 -90 -106z m90 -364 c269 -41 494 -240 587 -519 30
-89 34 -285 9 -383 -50 -194 -166 -352 -333 -456 -338 -210 -781 -111 -1002
223 -87 131 -126 271 -120 433 4 145 39 255 118 376 161 247 444 371 741 326z"/>
<path d="M1103 1840 c-276 -71 -466 -315 -464 -598 1 -236 146 -457 364 -557
116 -54 296 -66 417 -30 194 59 351 210 415 400 96 288 -49 622 -325 747 -124
57 -278 71 -407 38z m-70 -166 c-73 -74 -75 -75 -99 -59 -13 8 -24 19 -24 24
0 16 162 110 191 111 3 0 -27 -34 -68 -76z m453 39 c28 -14 64 -35 80 -48 29
-23 29 -23 10 -44 -23 -26 -42 -27 -55 -3 -9 18 -81 90 -116 117 -19 16 -19
16 5 9 14 -3 48 -17 76 -31z m-279 -109 l-1 -96 -41 6 c-61 10 -115 28 -115
39 0 16 51 71 102 110 28 20 51 37 53 37 1 0 2 -43 2 -96z m205 3 c27 -27 46
-53 41 -58 -9 -9 -119 -39 -143 -39 -13 0 -15 14 -14 93 1 50 2 93 3 95 3 7
67 -45 113 -91z m-546 -52 c8 -8 22 -19 32 -24 15 -8 15 -14 -5 -73 -20 -57
-28 -90 -37 -153 -2 -17 -11 -20 -64 -22 -70 -2 -68 -4 -51 79 16 75 84 208
106 208 3 0 11 -7 19 -15z m843 -55 c31 -58 74 -196 65 -211 -2 -4 -29 -7 -59
-8 -62 0 -67 5 -79 83 -3 20 -15 62 -26 94 l-20 57 32 27 c18 15 37 26 42 25
6 -2 26 -32 45 -67z m-610 -61 c41 -10 82 -19 91 -19 14 0 17 -11 17 -69 l0
-68 -133 -1 c-119 0 -132 1 -130 16 14 79 20 100 33 134 12 29 20 38 32 33 9
-4 49 -15 90 -26z m424 -6 c18 -44 24 -64 31 -114 l6 -37 -133 2 -132 1 0 65
0 65 60 12 c33 7 78 19 100 27 22 8 43 15 46 15 3 1 13 -16 22 -36z m-672
-242 c4 -1 10 -25 13 -53 4 -29 17 -78 30 -109 l22 -55 -38 -28 -38 -27 -30
47 c-35 55 -67 137 -76 192 l-6 39 58 -3 c33 -1 62 -2 65 -3z m356 -59 c1 -57
0 -62 -20 -63 -43 -1 -83 -10 -136 -30 -29 -11 -55 -18 -56 -17 -12 15 -27 57
-39 107 -17 72 -27 67 134 66 l115 0 2 -63z m347 28 c-4 -19 -16 -59 -26 -88
-16 -42 -23 -52 -36 -46 -35 14 -148 44 -169 44 -13 0 -24 3 -24 8 -6 36 -5
99 2 107 5 7 58 11 133 10 l126 0 -6 -35z m216 14 c0 -39 -37 -143 -71 -200
-18 -30 -36 -54 -39 -54 -3 1 -20 13 -38 29 l-33 28 26 76 c14 41 25 89 25
106 0 33 7 36 83 37 42 0 47 -2 47 -22z m-562 -290 l2 -96 -32 20 c-46 29
-140 125 -131 133 12 11 104 38 134 38 l25 1 2 -96z m220 70 l34 -14 -23 -28
c-31 -37 -120 -112 -134 -112 -7 0 -10 31 -9 88 1 48 2 89 3 91 2 7 96 -11
129 -25z m-372 -162 l59 -53 -45 16 c-44 16 -107 51 -145 81 -20 15 -20 16 9
39 l30 24 17 -28 c9 -15 43 -51 75 -79z m520 79 l24 -19 -33 -24 c-34 -27
-118 -71 -154 -82 -14 -5 4 19 50 67 40 41 76 75 80 76 5 0 20 -7 33 -18z"/>
</g>
</svg>
